<svg id="Layer_4" data-name="Layer 4" xmlns="http://www.w3.org/2000/svg" viewBox="0 0 643.5 792">
  <title>JRLA-Logo1</title>
  <g>
    <polygon points="544.5 597.51 544.5 667.52 420.02 792 396 792 396 0 445.5 0 445.5 696.51 544.5 597.51"/>
    <path d="M450.22,144l-34,34V936h12l37.49-37.49v-350l8.5-8.5,41-41V919l32.52-32.52,17-17v-379h-41l41-41V144Zm65,285-49.5,49.5v-285h49.5Z" transform="translate(-218.25 -144)"/>
    <polygon points="148.5 83.47 148.5 713.51 70.01 792 0 792 0 511.98 49.5 462.48 49.5 742.5 99 693 99 132.97 132.97 99 148.5 83.47"/>
    <path d="M730.23,144l-17,17V721l32.52-32.52,17-17v-140l49.5-49.5V902l49.5-49.5V144Zm32.52,317.51v-268h49.5V412Z" transform="translate(-218.25 -144)"/>
  </g>
</svg>
