<svg xmlns="http://www.w3.org/2000/svg" viewBox="0 0 822 949.16">
  <title>JRLA-Logo3</title>
  <g>
    <polygon points="389.85 120.33 389.85 828.83 368.68 816.62 347.53 804.39 326.37 792.18 305.21 779.96 284.06 767.74 262.89 755.52 241.74 743.32 220.59 731.09 199.42 718.9 178.27 706.67 157.1 694.46 135.95 682.24 114.81 670.04 93.63 657.81 93.63 462.37 114.8 474.58 135.95 486.8 135.95 633.38 157.13 645.6 178.27 657.81 199.42 670.04 220.59 682.24 241.74 694.47 284.06 718.9 305.21 731.12 326.37 743.32 347.53 755.54 347.53 144.76 368.68 132.55 389.85 120.33"/>
    <polygon points="728.37 462.37 728.37 657.81 707.21 670.04 686.05 682.24 664.89 694.47 622.58 718.9 601.42 731.11 580.26 743.33 559.11 755.54 537.95 767.76 516.79 779.97 474.48 804.4 453.32 816.62 432.16 828.83 432.16 120.33 453.32 132.55 474.48 144.78 474.48 755.54 495.63 743.33 516.79 731.11 537.95 718.9 559.11 706.67 580.26 694.47 601.42 682.24 622.58 670.04 643.74 657.81 664.89 645.61 686.05 633.38 686.05 486.8 707.21 474.58 728.37 462.37"/>
    <path d="M413.06,246.83,391.9,259l-21.16,12.22-21.16,12.21-21.15,12.22L307.27,307.9V674.38l21.16,12.21,21.15,12.22v-171l21.15-12.21,21.17-12.21V723.24l21.16,12.21,21.15,12.22V503.36l-21.15-12.22,21.15-12.21V234.61ZM391.9,454.5l-21.17,12.21-21.15,12.22V332.35l21.16-12.23,21.16-12.2Z" transform="translate(-129 -65.42)"/>
    <path d="M751.58,295.69l-21.16-12.2-21.16-12.23-21.15-12.2L667,246.84l-21.16-12.21v513l21.14-12.2,21.18-12.23V503.34l21.17,12.23,21.14,12.21v171l42.32-24.43V307.92ZM730.42,478.93l-21.14-12.22L688.11,454.5V307.9l21.15,12.22,21.16,12.23Z" transform="translate(-129 -65.42)"/>
  </g>
  <path d="M540,1014.58,129,777.29V302.71L540,65.42,951,302.71V777.29ZM179,748.42,540,956.85,901,748.42V331.58L540,123.15,179,331.58Z" transform="translate(-129 -65.42)"/>
</svg>
